<svg width="24" height="24" viewBox="0 0 24 24" fill="none" xmlns="http://www.w3.org/2000/svg">
<path fill-rule="evenodd" clip-rule="evenodd" d="M8.13602 1.6026C8.35556 1.95386 8.24877 2.41657 7.89752 2.6361L3.8975 5.1361C3.54624 5.35563 3.08353 5.24885 2.864 4.8976C2.64447 4.54634 2.75125 4.08363 3.1025 3.8641L7.10253 1.3641C7.45378 1.14457 7.91649 1.25135 8.13602 1.6026ZM15.864 1.6026C16.0835 1.25135 16.5462 1.14457 16.8975 1.3641L20.8975 3.8641C21.2488 4.08363 21.3555 4.54635 21.136 4.8976C20.9165 5.24885 20.4538 5.35563 20.1025 5.1361L16.1025 2.6361C15.7512 2.41657 15.6445 1.95385 15.864 1.6026ZM12 4.7501C7.44365 4.7501 3.75 8.44375 3.75 13.0001C3.75 17.5564 7.44365 21.2501 12 21.2501C16.5563 21.2501 20.25 17.5564 20.25 13.0001C20.25 8.44375 16.5563 4.7501 12 4.7501ZM2.25 13.0001C2.25 7.61532 6.61522 3.2501 12 3.2501C17.3848 3.2501 21.75 7.61532 21.75 13.0001C21.75 18.3849 17.3848 22.7501 12 22.7501C6.61522 22.7501 2.25 18.3849 2.25 13.0001Z" fill="#323334"/>
<path d="M11.9697 8.25C12.3839 8.25 12.7197 8.58579 12.7197 9V15.1893L13.9393 13.9697C14.2322 13.6768 14.7071 13.6768 15 13.9697C15.2929 14.2626 15.2929 14.7374 15 15.0303L12.5 17.5303C12.2071 17.8232 11.7322 17.8232 11.4393 17.5303L8.93934 15.0303C8.64645 14.7374 8.64645 14.2626 8.93934 13.9697C9.23223 13.6768 9.70711 13.6768 10 13.9697L11.2197 15.1893V9C11.2197 8.58579 11.5555 8.25 11.9697 8.25Z" fill="#323334"/>
</svg>
