<svg width="24" height="24" viewBox="0 0 24 24" fill="none" xmlns="http://www.w3.org/2000/svg">
<path d="M16.75 13.25C17.3023 13.25 17.75 12.8023 17.75 12.25C17.75 11.6977 17.3023 11.25 16.75 11.25C16.1977 11.25 15.75 11.6977 15.75 12.25C15.75 12.8023 16.1977 13.25 16.75 13.25Z" fill="#323334"/>
<path d="M16.75 17.25C17.3023 17.25 17.75 16.8023 17.75 16.25C17.75 15.6977 17.3023 15.25 16.75 15.25C16.1977 15.25 15.75 15.6977 15.75 16.25C15.75 16.8023 16.1977 17.25 16.75 17.25Z" fill="#323334"/>
<path d="M12.75 12.25C12.75 12.8023 12.3023 13.25 11.75 13.25C11.1977 13.25 10.75 12.8023 10.75 12.25C10.75 11.6977 11.1977 11.25 11.75 11.25C12.3023 11.25 12.75 11.6977 12.75 12.25Z" fill="#323334"/>
<path d="M12.75 16.25C12.75 16.8023 12.3023 17.25 11.75 17.25C11.1977 17.25 10.75 16.8023 10.75 16.25C10.75 15.6977 11.1977 15.25 11.75 15.25C12.3023 15.25 12.75 15.6977 12.75 16.25Z" fill="#323334"/>
<path d="M6.75 13.25C7.30229 13.25 7.75 12.8023 7.75 12.25C7.75 11.6977 7.30229 11.25 6.75 11.25C6.19772 11.25 5.75 11.6977 5.75 12.25C5.75 12.8023 6.19772 13.25 6.75 13.25Z" fill="#323334"/>
<path d="M6.75 17.25C7.30229 17.25 7.75 16.8023 7.75 16.25C7.75 15.6977 7.30229 15.25 6.75 15.25C6.19772 15.25 5.75 15.6977 5.75 16.25C5.75 16.8023 6.19772 17.25 6.75 17.25Z" fill="#323334"/>
<path fill-rule="evenodd" clip-rule="evenodd" d="M6.75 1C7.16421 1 7.5 1.33579 7.5 1.75V2.51272C8.162 2.49999 8.89133 2.49999 9.69346 2.5H13.8064C14.6086 2.49999 15.338 2.49999 16 2.51272V1.75C16 1.33579 16.3358 1 16.75 1C17.1642 1 17.5 1.33579 17.5 1.75V2.57709C17.7599 2.59691 18.0061 2.62182 18.239 2.65313C19.4114 2.81076 20.3604 3.14288 21.1088 3.89124C21.8571 4.63961 22.1892 5.58855 22.3469 6.76098C22.5 7.90018 22.5 9.3558 22.5 11.1935V13.3064C22.5 15.1441 22.5 16.5998 22.3469 17.739C22.1892 18.9114 21.8571 19.8604 21.1088 20.6088C20.3604 21.3571 19.4114 21.6892 18.239 21.8469C17.0998 22 15.6442 22 13.8065 22H9.69359C7.85585 22 6.40018 22 5.26098 21.8469C4.08856 21.6892 3.13961 21.3571 2.39124 20.6088C1.64288 19.8604 1.31076 18.9114 1.15314 17.739C0.999972 16.5998 0.999985 15.1442 1 13.3064V11.1936C0.999985 9.35582 0.999972 7.90019 1.15314 6.76098C1.31076 5.58855 1.64288 4.63961 2.39124 3.89124C3.13961 3.14288 4.08856 2.81076 5.26098 2.65313C5.4939 2.62182 5.74006 2.59691 6 2.57709V1.75C6 1.33579 6.33579 1 6.75 1ZM5.46085 4.13976C4.45476 4.27502 3.87511 4.52869 3.4519 4.9519C3.02869 5.37511 2.77502 5.95476 2.63976 6.96085C2.61685 7.13123 2.5977 7.31061 2.58168 7.5H20.9183C20.9023 7.31061 20.8831 7.13124 20.8602 6.96085C20.725 5.95476 20.4713 5.37511 20.0481 4.9519C19.6249 4.52869 19.0452 4.27502 18.0392 4.13976C17.0115 4.00159 15.6568 4 13.75 4H9.75C7.84318 4 6.48851 4.00159 5.46085 4.13976ZM2.5 11.25C2.5 10.396 2.50032 9.65273 2.51309 9H20.9869C20.9997 9.65273 21 10.396 21 11.25V13.25C21 15.1568 20.9984 16.5115 20.8602 17.5392C20.725 18.5452 20.4713 19.1249 20.0481 19.5481C19.6249 19.9713 19.0452 20.225 18.0392 20.3602C17.0115 20.4984 15.6568 20.5 13.75 20.5H9.75C7.84318 20.5 6.48851 20.4984 5.46085 20.3602C4.45476 20.225 3.87511 19.9713 3.4519 19.5481C3.02869 19.1249 2.77502 18.5452 2.63976 17.5392C2.50159 16.5115 2.5 15.1568 2.5 13.25V11.25Z" fill="#323334"/>
</svg>
