<svg width="24" height="24" viewBox="0 0 24 24" fill="none" xmlns="http://www.w3.org/2000/svg">
<g clip-path="url(#clip0_60_1047)">
<path fill-rule="evenodd" clip-rule="evenodd" d="M10.25 0.25C4.58908 0.25 0 4.83908 0 10.5C0 16.1609 4.58908 20.75 10.25 20.75C12.8105 20.75 15.1517 19.8111 16.9482 18.2589L22.2197 23.5303C22.5126 23.8232 22.9874 23.8232 23.2803 23.5303C23.5732 23.2374 23.5732 22.7626 23.2803 22.4697L18.0089 17.1982C19.5611 15.4017 20.5 13.0605 20.5 10.5C20.5 4.83908 15.9109 0.25 10.25 0.25ZM1.5 10.5C1.5 5.66751 5.41751 1.75 10.25 1.75C15.0825 1.75 19 5.66751 19 10.5C19 15.3325 15.0825 19.25 10.25 19.25C5.41751 19.25 1.5 15.3325 1.5 10.5Z" fill="#323334"/>
</g>
<defs>
<clipPath id="clip0_60_1047">
<rect width="24" height="24" fill="white"/>
</clipPath>
</defs>
</svg>
